<?xml version="1.0" standalone="no"?>
<!DOCTYPE svg PUBLIC "-//W3C//DTD SVG 20010904//EN"
 "http://www.w3.org/TR/2001/REC-SVG-20010904/DTD/svg10.dtd">
<svg version="1.0" xmlns="http://www.w3.org/2000/svg"
 width="700.000000pt" height="700.000000pt" viewBox="0 0 700.000000 700.000000"
 preserveAspectRatio="xMidYMid meet">
<metadata>
Created by potrace 1.14, written by Peter Selinger 2001-2017
</metadata>
<g transform="translate(0.000000,700.000000) scale(0.100000,-0.100000)"
fill="#000000" stroke="none">
<path d="M4855 5575 c-44 -8 -89 -16 -100 -18 -89 -21 -165 -45 -301 -93 -323
-114 -448 -151 -564 -169 -25 -4 -53 -9 -63 -11 -35 -6 -213 -24 -302 -30 -49
-3 -94 -9 -98 -13 -22 -21 177 -48 330 -45 215 4 346 29 643 121 322 100 426
123 580 129 262 9 465 -93 559 -281 47 -94 60 -156 56 -275 -5 -192 -82 -351
-241 -499 -88 -83 -188 -147 -349 -226 -149 -73 -221 -130 -259 -207 -40 -80
-31 -87 29 -25 64 66 107 94 190 126 173 67 256 102 306 131 240 141 399 347
455 593 13 56 12 225 -2 286 -58 250 -222 419 -476 491 -93 27 -280 34 -393
15z"/>
<path d="M3127 5514 c-1 -1 -47 -4 -102 -7 -115 -7 -168 -13 -245 -28 -392
-76 -709 -298 -864 -606 -35 -70 -76 -231 -78 -307 -3 -112 22 -218 36 -154
49 221 81 314 140 413 121 204 345 373 612 463 50 17 102 33 115 36 13 2 44 9
69 14 60 14 110 21 265 37 54 6 411 6 510 1 44 -3 121 -8 172 -11 186 -12 259
-14 273 -5 11 7 5 13 -25 26 -69 29 -212 64 -320 80 -22 3 -47 7 -55 9 -8 2
-42 7 -75 11 -33 3 -68 8 -77 10 -46 8 -344 24 -351 18z"/>
<path d="M3070 4984 c0 -8 29 -77 64 -152 84 -182 136 -343 152 -475 3 -23 7
-56 9 -74 3 -17 7 -87 10 -155 9 -175 15 -188 59 -120 56 85 77 330 43 487
-19 91 -67 213 -114 295 -71 122 -223 254 -223 194z"/>
<path d="M4162 4944 c-91 -72 -205 -307 -237 -489 -11 -65 -14 -256 -4 -319
12 -72 44 -165 64 -185 31 -31 38 -4 50 194 7 116 12 169 20 205 3 14 7 43 11
65 3 22 7 48 10 57 3 9 7 25 9 37 9 50 51 186 91 300 60 167 57 191 -14 135z"/>
<path d="M4884 4954 c-153 -75 -340 -331 -408 -556 -40 -134 -56 -285 -37
-356 22 -79 36 -59 106 149 69 202 168 405 280 572 137 205 145 234 59 191z"/>
<path d="M1763 4771 c-124 -45 -289 -156 -399 -268 -279 -284 -315 -661 -85
-888 65 -64 119 -97 206 -127 346 -117 792 99 981 475 39 76 68 177 56 189 -5
5 -38 -36 -75 -91 -36 -54 -93 -128 -127 -164 -289 -309 -705 -394 -932 -189
-83 75 -121 168 -121 297 1 216 161 456 443 665 52 39 109 81 125 95 l30 24
-25 0 c-14 0 -48 -8 -77 -18z"/>
<path d="M2650 4560 c-12 -8 -11 -24 9 -107 59 -250 69 -292 75 -343 13 -110
17 -136 28 -162 29 -75 89 24 101 169 3 37 -5 120 -17 178 -16 77 -80 192
-129 234 -43 37 -51 41 -67 31z"/>
<path d="M2430 3846 c0 -9 122 -75 203 -110 225 -97 439 -135 727 -130 107 1
204 5 215 7 11 3 52 8 90 12 120 12 167 19 330 46 155 26 127 21 385 68 58 11
150 27 205 36 55 9 103 19 107 21 10 7 11 12 -11 -91 -52 -240 -56 -451 -11
-650 18 -79 71 -236 106 -313 19 -41 34 -75 34 -76 0 -1 -159 -2 -352 -1 -300
0 -520 -7 -587 -20 -9 -1 -47 -6 -86 -9 -128 -12 -180 -17 -204 -21 -154 -25
-641 -25 -771 0 -14 3 -45 7 -70 10 -98 12 -363 85 -374 104 -3 4 6 38 20 77
28 76 71 244 80 314 3 25 10 68 14 95 13 78 7 436 -7 460 l-12 20 -1 -20 c-1
-11 -3 -27 -4 -35 -2 -8 -6 -55 -10 -105 -4 -49 -9 -101 -11 -115 -1 -14 -6
-49 -10 -79 -4 -30 -9 -63 -11 -75 -2 -11 -6 -38 -10 -61 -12 -84 -46 -244
-75 -360 -17 -66 -32 -126 -33 -133 -1 -17 86 -65 215 -117 132 -53 229 -80
394 -110 134 -24 510 -24 735 0 19 2 73 6 120 10 47 3 92 8 100 10 8 2 45 6
82 10 37 3 77 8 90 10 13 2 52 6 88 10 36 3 76 8 90 10 27 3 112 13 170 20 19
2 64 7 100 10 36 3 79 8 95 10 17 2 71 7 120 11 50 4 101 8 115 10 14 1 35 2
48 3 18 1 22 5 17 20 -3 11 -7 28 -9 38 -2 10 -9 36 -15 58 -15 60 -48 229
-56 295 -1 8 -5 42 -9 75 -4 33 -10 71 -12 85 -12 79 -19 232 -19 438 l0 234
-145 -6 c-141 -6 -175 -8 -330 -21 -63 -5 -214 -25 -310 -40 -412 -67 -435
-70 -570 -81 -169 -14 -347 -7 -520 22 -65 10 -192 45 -313 85 -117 38 -137
43 -137 35z"/>
<path d="M2317 2324 c-1 -1 -56 -5 -122 -8 -66 -4 -133 -8 -150 -10 -16 -2
-64 -8 -105 -12 -41 -4 -78 -9 -82 -10 -5 -1 -13 -2 -19 -3 -17 -2 -6 -194 12
-200 38 -12 77 -68 89 -126 64 -308 90 -398 143 -500 58 -110 169 -194 306
-230 59 -15 259 -18 331 -5 25 4 61 11 82 14 90 14 233 78 297 133 56 48 151
182 199 283 37 78 51 119 82 237 19 75 83 115 158 98 48 -10 71 -45 103 -156
48 -166 147 -345 245 -443 106 -106 303 -170 539 -174 93 -2 147 2 190 13 131
34 238 111 298 214 45 76 100 251 132 413 30 156 37 177 70 202 14 10 31 24
39 30 18 14 28 195 11 197 -5 1 -19 3 -30 4 -11 1 -42 6 -70 10 -186 26 -712
40 -870 22 -161 -19 -335 -62 -415 -102 -71 -36 -125 -47 -244 -49 -155 -2
-219 7 -306 47 -83 38 -195 69 -310 87 -41 6 -86 14 -100 17 -23 5 -498 12
-503 7z m678 -118 c137 -39 212 -102 230 -192 26 -138 10 -266 -51 -394 -58
-123 -133 -204 -231 -251 -182 -86 -448 -100 -603 -32 -169 75 -282 311 -283
594 -1 147 91 244 269 283 103 22 584 17 669 -8z m1675 9 c147 -29 246 -104
270 -207 11 -45 8 -202 -5 -240 -2 -7 -6 -29 -9 -49 -9 -60 -49 -161 -89 -220
-103 -155 -217 -210 -427 -204 -115 3 -152 9 -255 40 -110 34 -175 74 -235
146 -117 140 -172 323 -147 489 20 135 105 211 274 244 98 20 524 20 623 1z
m-2610 -47 c0 -16 -10 -18 -75 -18 -58 0 -75 3 -75 14 0 19 12 22 87 22 53 -1
63 -4 63 -18z m3030 0 c0 -16 -10 -18 -68 -18 -38 0 -72 3 -75 7 -17 16 17 29
78 29 55 0 65 -3 65 -18z"/>
</g>
</svg>
